<?xml version="1.0" encoding="UTF-8" standalone="yes"?><svg xmlns="http://www.w3.org/2000/svg" xmlns:xlink="http://www.w3.org/1999/xlink" height="253px" style="width:469px;height:253px;" version="1.1" viewBox="0 0 469 253" width="469px"><defs><filter height="300%" id="f1" width="300%" x="-1" y="-1"><feGaussianBlur result="blurOut" stdDeviation="2.0"/><feColorMatrix in="blurOut" result="blurOut2" type="matrix" values="0 0 0 0 0 0 0 0 0 0 0 0 0 0 0 0 0 0 .4 0"/><feOffset dx="4.0" dy="4.0" in="blurOut2" result="blurOut3"/><feBlend in="SourceGraphic" in2="blurOut3" mode="normal"/></filter></defs><g><line style="stroke: #2980B9; stroke-width: 1.0; stroke-dasharray: 5.0,5.0;" x1="122" x2="122" y1="38.4883" y2="214.7305"/><line style="stroke: #2980B9; stroke-width: 1.0; stroke-dasharray: 5.0,5.0;" x1="337" x2="337" y1="38.4883" y2="214.7305"/><rect fill="#BDE3FF" filter="url(#f1)" height="30.4883" style="stroke: #2980B9; stroke-width: 1.5;" width="224" x="8" y="3"/><text fill="#000000" font-family="sans-serif" font-size="14" lengthAdjust="spacingAndGlyphs" textLength="210" x="15" y="23.5352">GeneratorCommandController</text><rect fill="#BDE3FF" filter="url(#f1)" height="30.4883" style="stroke: #2980B9; stroke-width: 1.5;" width="224" x="8" y="213.7305"/><text fill="#000000" font-family="sans-serif" font-size="14" lengthAdjust="spacingAndGlyphs" textLength="210" x="15" y="234.2656">GeneratorCommandController</text><rect fill="#BDE3FF" filter="url(#f1)" height="30.4883" style="stroke: #2980B9; stroke-width: 1.5;" width="178" x="246" y="3"/><text fill="#000000" font-family="sans-serif" font-size="14" lengthAdjust="spacingAndGlyphs" textLength="164" x="253" y="23.5352">Generator\AtomicKitten</text><rect fill="#BDE3FF" filter="url(#f1)" height="30.4883" style="stroke: #2980B9; stroke-width: 1.5;" width="178" x="246" y="213.7305"/><text fill="#000000" font-family="sans-serif" font-size="14" lengthAdjust="spacingAndGlyphs" textLength="164" x="253" y="234.2656">Generator\AtomicKitten</text><line style="stroke: #2980B9; stroke-width: 1.0;" x1="122" x2="164" y1="69.7988" y2="69.7988"/><line style="stroke: #2980B9; stroke-width: 1.0;" x1="164" x2="164" y1="69.7988" y2="82.7988"/><line style="stroke: #2980B9; stroke-width: 1.0;" x1="123" x2="164" y1="82.7988" y2="82.7988"/><polygon fill="#2980B9" points="133,78.7988,123,82.7988,133,86.7988,129,82.7988" style="stroke: #2980B9; stroke-width: 1.0;"/><text fill="#000000" font-family="sans-serif" font-size="13" lengthAdjust="spacingAndGlyphs" textLength="97" x="129" y="65.0566">cleanCommand</text><polygon fill="#2980B9" points="325,107.7988,335,111.7988,325,115.7988,329,111.7988" style="stroke: #2980B9; stroke-width: 1.0;"/><line style="stroke: #2980B9; stroke-width: 1.0;" x1="122" x2="331" y1="111.7988" y2="111.7988"/><text fill="#000000" font-family="sans-serif" font-size="13" lengthAdjust="spacingAndGlyphs" textLength="32" x="129" y="107.3672">build</text><line style="stroke: #2980B9; stroke-width: 1.0;" x1="337" x2="379" y1="141.4199" y2="141.4199"/><line style="stroke: #2980B9; stroke-width: 1.0;" x1="379" x2="379" y1="141.4199" y2="154.4199"/><line style="stroke: #2980B9; stroke-width: 1.0;" x1="338" x2="379" y1="154.4199" y2="154.4199"/><polygon fill="#2980B9" points="348,150.4199,338,154.4199,348,158.4199,344,154.4199" style="stroke: #2980B9; stroke-width: 1.0;"/><text fill="#000000" font-family="sans-serif" font-size="13" lengthAdjust="spacingAndGlyphs" textLength="124" x="344" y="136.6777">getAllTemplateFiles</text><line style="stroke: #2980B9; stroke-width: 1.0; stroke-dasharray: 2.0,2.0;" x1="337" x2="379" y1="183.7305" y2="183.7305"/><line style="stroke: #2980B9; stroke-width: 1.0; stroke-dasharray: 2.0,2.0;" x1="379" x2="379" y1="183.7305" y2="196.7305"/><line style="stroke: #2980B9; stroke-width: 1.0; stroke-dasharray: 2.0,2.0;" x1="338" x2="379" y1="196.7305" y2="196.7305"/><polygon fill="#2980B9" points="348,192.7305,338,196.7305,348,200.7305,344,196.7305" style="stroke: #2980B9; stroke-width: 1.0;"/><text fill="#000000" font-family="sans-serif" font-size="13" lengthAdjust="spacingAndGlyphs" textLength="86" x="344" y="178.9883">template files</text></g></svg>