<?xml version="1.0" encoding="UTF-8" standalone="yes"?><svg xmlns="http://www.w3.org/2000/svg" xmlns:xlink="http://www.w3.org/1999/xlink" height="1009px" style="width:1205px;height:1009px;" version="1.1" viewBox="0 0 1205 1009" width="1205px"><defs><filter height="300%" id="f1" width="300%" x="-1" y="-1"><feGaussianBlur result="blurOut" stdDeviation="2.0"/><feColorMatrix in="blurOut" result="blurOut2" type="matrix" values="0 0 0 0 0 0 0 0 0 0 0 0 0 0 0 0 0 0 .4 0"/><feOffset dx="4.0" dy="4.0" in="blurOut2" result="blurOut3"/><feBlend in="SourceGraphic" in2="blurOut3" mode="normal"/></filter></defs><g><rect fill="#FFFFFF" filter="url(#f1)" height="291.1055" style="stroke: #2980B9; stroke-width: 1.0;" width="10" x="332" y="155.1094"/><rect fill="#FFFFFF" filter="url(#f1)" height="29.3105" style="stroke: #2980B9; stroke-width: 1.0;" width="10" x="526.5" y="184.4199"/><rect fill="#FFFFFF" filter="url(#f1)" height="29.3105" style="stroke: #2980B9; stroke-width: 1.0;" width="10" x="702.5" y="296.6621"/><rect fill="#FFFFFF" filter="url(#f1)" height="433.7266" style="stroke: #2980B9; stroke-width: 1.0;" width="10" x="987.5" y="518.8359"/><rect fill="#FFFFFF" filter="url(#f1)" height="34.3105" style="stroke: #2980B9; stroke-width: 1.0;" width="10" x="992.5" y="556.1465"/><rect fill="#FFFFFF" filter="url(#f1)" height="221.8633" style="stroke: #2980B9; stroke-width: 1.0;" width="10" x="992.5" y="652.0781"/><rect fill="#FFFFFF" filter="url(#f1)" height="76.6211" style="stroke: #2980B9; stroke-width: 1.0;" width="10" x="997.5" y="718.6992"/><rect fill="#FFFFFF" filter="url(#f1)" height="34.3105" style="stroke: #2980B9; stroke-width: 1.0;" width="10" x="992.5" y="918.252"/><rect fill="#FFFFFF" filter="url(#f1)" height="105.2422" style="stroke: #000000; stroke-width: 2.0;" width="671" x="236" y="258.3516"/><rect fill="#FFFFFF" filter="url(#f1)" height="276.4844" style="stroke: #000000; stroke-width: 2.0;" width="420.5" x="770" y="605.7676"/><rect fill="#FFFFFF" filter="url(#f1)" height="131.2422" style="stroke: #000000; stroke-width: 2.0;" width="400.5" x="780" y="672.3887"/><line style="stroke: #2980B9; stroke-width: 1.0; stroke-dasharray: 5.0,5.0;" x1="122" x2="122" y1="38.4883" y2="970.873"/><line style="stroke: #2980B9; stroke-width: 1.0; stroke-dasharray: 5.0,5.0;" x1="337" x2="337" y1="38.4883" y2="970.873"/><line style="stroke: #2980B9; stroke-width: 1.0; stroke-dasharray: 5.0,5.0;" x1="531" x2="531" y1="38.4883" y2="970.873"/><line style="stroke: #2980B9; stroke-width: 1.0; stroke-dasharray: 5.0,5.0;" x1="707" x2="707" y1="38.4883" y2="970.873"/><line style="stroke: #2980B9; stroke-width: 1.0; stroke-dasharray: 5.0,5.0;" x1="843" x2="843" y1="38.4883" y2="970.873"/><line style="stroke: #2980B9; stroke-width: 1.0; stroke-dasharray: 5.0,5.0;" x1="992" x2="992" y1="38.4883" y2="970.873"/><rect fill="#BDE3FF" filter="url(#f1)" height="30.4883" style="stroke: #2980B9; stroke-width: 1.5;" width="224" x="8" y="3"/><text fill="#000000" font-family="sans-serif" font-size="14" lengthAdjust="spacingAndGlyphs" textLength="210" x="15" y="23.5352">GeneratorCommandController</text><rect fill="#BDE3FF" filter="url(#f1)" height="30.4883" style="stroke: #2980B9; stroke-width: 1.5;" width="224" x="8" y="969.873"/><text fill="#000000" font-family="sans-serif" font-size="14" lengthAdjust="spacingAndGlyphs" textLength="210" x="15" y="990.4082">GeneratorCommandController</text><rect fill="#BDE3FF" filter="url(#f1)" height="30.4883" style="stroke: #2980B9; stroke-width: 1.5;" width="178" x="246" y="3"/><text fill="#000000" font-family="sans-serif" font-size="14" lengthAdjust="spacingAndGlyphs" textLength="164" x="253" y="23.5352">Generator\AtomicKitten</text><rect fill="#BDE3FF" filter="url(#f1)" height="30.4883" style="stroke: #2980B9; stroke-width: 1.5;" width="178" x="246" y="969.873"/><text fill="#000000" font-family="sans-serif" font-size="14" lengthAdjust="spacingAndGlyphs" textLength="164" x="253" y="990.4082">Generator\AtomicKitten</text><rect fill="#BDE3FF" filter="url(#f1)" height="30.4883" style="stroke: #2980B9; stroke-width: 1.5;" width="183" x="438" y="3"/><text fill="#000000" font-family="sans-serif" font-size="14" lengthAdjust="spacingAndGlyphs" textLength="169" x="445" y="23.5352">TYPO3\Flow\Utility\Files</text><rect fill="#BDE3FF" filter="url(#f1)" height="30.4883" style="stroke: #2980B9; stroke-width: 1.5;" width="183" x="438" y="969.873"/><text fill="#000000" font-family="sans-serif" font-size="14" lengthAdjust="spacingAndGlyphs" textLength="169" x="445" y="990.4082">TYPO3\Flow\Utility\Files</text><rect fill="#BDE3FF" filter="url(#f1)" height="30.4883" style="stroke: #2980B9; stroke-width: 1.5;" width="141" x="635" y="3"/><text fill="#000000" font-family="sans-serif" font-size="14" lengthAdjust="spacingAndGlyphs" textLength="127" x="642" y="23.5352">View\AtomicKitten</text><rect fill="#BDE3FF" filter="url(#f1)" height="30.4883" style="stroke: #2980B9; stroke-width: 1.5;" width="141" x="635" y="969.873"/><text fill="#000000" font-family="sans-serif" font-size="14" lengthAdjust="spacingAndGlyphs" textLength="127" x="642" y="990.4082">View\AtomicKitten</text><rect fill="#BDE3FF" filter="url(#f1)" height="30.4883" style="stroke: #2980B9; stroke-width: 1.5;" width="103" x="790" y="3"/><text fill="#000000" font-family="sans-serif" font-size="14" lengthAdjust="spacingAndGlyphs" textLength="89" x="797" y="23.5352">SplFileObject</text><rect fill="#BDE3FF" filter="url(#f1)" height="30.4883" style="stroke: #2980B9; stroke-width: 1.5;" width="103" x="790" y="969.873"/><text fill="#000000" font-family="sans-serif" font-size="14" lengthAdjust="spacingAndGlyphs" textLength="89" x="797" y="990.4082">SplFileObject</text><rect fill="#BDE3FF" filter="url(#f1)" height="30.4883" style="stroke: #2980B9; stroke-width: 1.5;" width="167" x="907" y="3"/><text fill="#000000" font-family="sans-serif" font-size="14" lengthAdjust="spacingAndGlyphs" textLength="153" x="914" y="23.5352">Generator\Framework</text><rect fill="#BDE3FF" filter="url(#f1)" height="30.4883" style="stroke: #2980B9; stroke-width: 1.5;" width="167" x="907" y="969.873"/><text fill="#000000" font-family="sans-serif" font-size="14" lengthAdjust="spacingAndGlyphs" textLength="153" x="914" y="990.4082">Generator\Framework</text><rect fill="#FFFFFF" filter="url(#f1)" height="291.1055" style="stroke: #2980B9; stroke-width: 1.0;" width="10" x="332" y="155.1094"/><rect fill="#FFFFFF" filter="url(#f1)" height="29.3105" style="stroke: #2980B9; stroke-width: 1.0;" width="10" x="526.5" y="184.4199"/><rect fill="#FFFFFF" filter="url(#f1)" height="29.3105" style="stroke: #2980B9; stroke-width: 1.0;" width="10" x="702.5" y="296.6621"/><rect fill="#FFFFFF" filter="url(#f1)" height="433.7266" style="stroke: #2980B9; stroke-width: 1.0;" width="10" x="987.5" y="518.8359"/><rect fill="#FFFFFF" filter="url(#f1)" height="34.3105" style="stroke: #2980B9; stroke-width: 1.0;" width="10" x="992.5" y="556.1465"/><rect fill="#FFFFFF" filter="url(#f1)" height="221.8633" style="stroke: #2980B9; stroke-width: 1.0;" width="10" x="992.5" y="652.0781"/><rect fill="#FFFFFF" filter="url(#f1)" height="76.6211" style="stroke: #2980B9; stroke-width: 1.0;" width="10" x="997.5" y="718.6992"/><rect fill="#FFFFFF" filter="url(#f1)" height="34.3105" style="stroke: #2980B9; stroke-width: 1.0;" width="10" x="992.5" y="918.252"/><rect fill="#BDE3FF" filter="url(#f1)" height="3" style="stroke: #BDE3FF; stroke-width: 1.0;" width="1197.5" x="3" y="69.1436"/><line style="stroke: #000000; stroke-width: 1.0;" x1="3" x2="1200.5" y1="69.1436" y2="69.1436"/><line style="stroke: #000000; stroke-width: 1.0;" x1="3" x2="1200.5" y1="72.1436" y2="72.1436"/><rect fill="#BDE3FF" filter="url(#f1)" height="23.3105" style="stroke: #000000; stroke-width: 2.0;" width="171" x="516.25" y="58.4883"/><text fill="#000000" font-family="sans-serif" font-size="13" font-weight="bold" lengthAdjust="spacingAndGlyphs" textLength="153" x="522.25" y="75.0566">Generate AtomicKitten</text><line style="stroke: #2980B9; stroke-width: 1.0;" x1="122" x2="164" y1="113.1094" y2="113.1094"/><line style="stroke: #2980B9; stroke-width: 1.0;" x1="164" x2="164" y1="113.1094" y2="126.1094"/><line style="stroke: #2980B9; stroke-width: 1.0;" x1="123" x2="164" y1="126.1094" y2="126.1094"/><polygon fill="#2980B9" points="133,122.1094,123,126.1094,133,130.1094,129,126.1094" style="stroke: #2980B9; stroke-width: 1.0;"/><text fill="#000000" font-family="sans-serif" font-size="13" lengthAdjust="spacingAndGlyphs" textLength="97" x="129" y="108.3672">cleanCommand</text><polygon fill="#2980B9" points="320,151.1094,330,155.1094,320,159.1094,324,155.1094" style="stroke: #2980B9; stroke-width: 1.0;"/><line style="stroke: #2980B9; stroke-width: 1.0;" x1="122" x2="326" y1="155.1094" y2="155.1094"/><text fill="#000000" font-family="sans-serif" font-size="13" lengthAdjust="spacingAndGlyphs" textLength="32" x="129" y="150.6777">build</text><polygon fill="#2980B9" points="514.5,180.4199,524.5,184.4199,514.5,188.4199,518.5,184.4199" style="stroke: #2980B9; stroke-width: 1.0;"/><line style="stroke: #2980B9; stroke-width: 1.0;" x1="342" x2="520.5" y1="184.4199" y2="184.4199"/><text fill="#000000" font-family="sans-serif" font-size="13" lengthAdjust="spacingAndGlyphs" textLength="156" x="349" y="179.9883">readDirectoryRecursively</text><polygon fill="#2980B9" points="353,209.7305,343,213.7305,353,217.7305,349,213.7305" style="stroke: #2980B9; stroke-width: 1.0;"/><line style="stroke: #2980B9; stroke-width: 1.0; stroke-dasharray: 2.0,2.0;" x1="347" x2="530.5" y1="213.7305" y2="213.7305"/><text fill="#000000" font-family="sans-serif" font-size="13" lengthAdjust="spacingAndGlyphs" textLength="124" x="359" y="209.2988">template file names</text><polygon fill="#2980B9" points="695.5,239.041,705.5,243.041,695.5,247.041,699.5,243.041" style="stroke: #2980B9; stroke-width: 1.0;"/><line style="stroke: #2980B9; stroke-width: 1.0;" x1="342" x2="701.5" y1="243.041" y2="243.041"/><text fill="#000000" font-family="sans-serif" font-size="13" lengthAdjust="spacingAndGlyphs" textLength="135" x="349" y="238.6094">setPathsFromOptions</text><rect fill="none" height="105.2422" style="stroke: #000000; stroke-width: 2.0;" width="671" x="236" y="258.3516"/><polygon fill="#BDE3FF" points="236,258.3516,310,258.3516,310,265.3516,300,275.3516,236,275.3516,236,258.3516" style="stroke: #000000; stroke-width: 2.0;"/><text fill="#000000" font-family="sans-serif" font-size="13" font-weight="bold" lengthAdjust="spacingAndGlyphs" textLength="29" x="251" y="271.9199">loop</text><text fill="#000000" font-family="sans-serif" font-size="11" font-weight="bold" lengthAdjust="spacingAndGlyphs" textLength="129" x="325" y="270.9863">[for each template file]</text><polygon fill="#2980B9" points="690.5,292.6621,700.5,296.6621,690.5,300.6621,694.5,296.6621" style="stroke: #2980B9; stroke-width: 1.0;"/><line style="stroke: #2980B9; stroke-width: 1.0;" x1="342" x2="696.5" y1="296.6621" y2="296.6621"/><text fill="#000000" font-family="sans-serif" font-size="13" lengthAdjust="spacingAndGlyphs" textLength="40" x="349" y="292.2305">render</text><polygon fill="#2980B9" points="353,321.9727,343,325.9727,353,329.9727,349,325.9727" style="stroke: #2980B9; stroke-width: 1.0;"/><line style="stroke: #2980B9; stroke-width: 1.0; stroke-dasharray: 2.0,2.0;" x1="347" x2="706.5" y1="325.9727" y2="325.9727"/><text fill="#000000" font-family="sans-serif" font-size="13" lengthAdjust="spacingAndGlyphs" textLength="88" x="359" y="321.541">rendered html</text><polygon fill="#2980B9" points="831.5,351.2832,841.5,355.2832,831.5,359.2832,835.5,355.2832" style="stroke: #2980B9; stroke-width: 1.0;"/><line style="stroke: #2980B9; stroke-width: 1.0;" x1="342" x2="837.5" y1="355.2832" y2="355.2832"/><text fill="#000000" font-family="sans-serif" font-size="13" lengthAdjust="spacingAndGlyphs" textLength="36" x="349" y="350.8516">fwrite</text><polygon fill="#F1FFFF" filter="url(#f1)" points="92,375.5938,92,415.5938,578,415.5938,578,385.5938,568,375.5938,92,375.5938" style="stroke: #2980B9; stroke-width: 1.0;"/><line style="stroke: #2980B9; stroke-width: 1.0;" x1="568" x2="568" y1="375.5938" y2="385.5938"/><line style="stroke: #2980B9; stroke-width: 1.0;" x1="578" x2="568" y1="385.5938" y2="385.5938"/><text fill="#000000" font-family="sans-serif" font-size="13" lengthAdjust="spacingAndGlyphs" textLength="465" x="98" y="393.1621">At this point all fluid templates were parsed and are available via browser.</text><text fill="#000000" font-family="sans-serif" font-size="13" lengthAdjust="spacingAndGlyphs" textLength="235" x="98" y="408.4727">But no framework is wrapped around.</text><polygon fill="#2980B9" points="133,442.2148,123,446.2148,133,450.2148,129,446.2148" style="stroke: #2980B9; stroke-width: 1.0;"/><line style="stroke: #2980B9; stroke-width: 1.0; stroke-dasharray: 2.0,2.0;" x1="127" x2="336" y1="446.2148" y2="446.2148"/><text fill="#000000" font-family="sans-serif" font-size="13" lengthAdjust="spacingAndGlyphs" textLength="124" x="139" y="441.7832">template file names</text><rect fill="#BDE3FF" filter="url(#f1)" height="3" style="stroke: #BDE3FF; stroke-width: 1.0;" width="1197.5" x="3" y="475.1807"/><line style="stroke: #000000; stroke-width: 1.0;" x1="3" x2="1200.5" y1="475.1807" y2="475.1807"/><line style="stroke: #000000; stroke-width: 1.0;" x1="3" x2="1200.5" y1="478.1807" y2="478.1807"/><rect fill="#BDE3FF" filter="url(#f1)" height="23.3105" style="stroke: #000000; stroke-width: 2.0;" width="159" x="522.25" y="464.5254"/><text fill="#000000" font-family="sans-serif" font-size="13" font-weight="bold" lengthAdjust="spacingAndGlyphs" textLength="141" x="528.25" y="481.0938">Generate Framework</text><polygon fill="#2980B9" points="975.5,514.8359,985.5,518.8359,975.5,522.8359,979.5,518.8359" style="stroke: #2980B9; stroke-width: 1.0;"/><line style="stroke: #2980B9; stroke-width: 1.0;" x1="122" x2="981.5" y1="518.8359" y2="518.8359"/><text fill="#000000" font-family="sans-serif" font-size="13" lengthAdjust="spacingAndGlyphs" textLength="32" x="129" y="514.4043">build</text><line style="stroke: #2980B9; stroke-width: 1.0;" x1="997.5" x2="1044.5" y1="543.457" y2="543.457"/><line style="stroke: #2980B9; stroke-width: 1.0;" x1="1044.5" x2="1044.5" y1="543.457" y2="556.457"/><line style="stroke: #2980B9; stroke-width: 1.0;" x1="1003.5" x2="1044.5" y1="556.457" y2="556.457"/><polygon fill="#2980B9" points="1013.5,552.457,1003.5,556.457,1013.5,560.457,1009.5,556.457" style="stroke: #2980B9; stroke-width: 1.0;"/><text fill="#000000" font-family="sans-serif" font-size="13" lengthAdjust="spacingAndGlyphs" textLength="71" x="1009.5" y="538.7148">generateAll</text><polygon fill="#2980B9" points="854.5,586.457,844.5,590.457,854.5,594.457,850.5,590.457" style="stroke: #2980B9; stroke-width: 1.0;"/><line style="stroke: #2980B9; stroke-width: 1.0;" x1="848.5" x2="986.5" y1="590.457" y2="590.457"/><text fill="#000000" font-family="sans-serif" font-size="13" lengthAdjust="spacingAndGlyphs" textLength="36" x="860.5" y="586.0254">fwrite</text><rect fill="none" height="276.4844" style="stroke: #000000; stroke-width: 2.0;" width="420.5" x="770" y="605.7676"/><polygon fill="#BDE3FF" points="770,605.7676,844,605.7676,844,612.7676,834,622.7676,770,622.7676,770,605.7676" style="stroke: #000000; stroke-width: 2.0;"/><text fill="#000000" font-family="sans-serif" font-size="13" font-weight="bold" lengthAdjust="spacingAndGlyphs" textLength="29" x="785" y="619.3359">loop</text><text fill="#000000" font-family="sans-serif" font-size="11" font-weight="bold" lengthAdjust="spacingAndGlyphs" textLength="150" x="859" y="618.4023">[for each navigation point]</text><line style="stroke: #2980B9; stroke-width: 1.0;" x1="997.5" x2="1044.5" y1="639.3887" y2="639.3887"/><line style="stroke: #2980B9; stroke-width: 1.0;" x1="1044.5" x2="1044.5" y1="639.3887" y2="652.3887"/><line style="stroke: #2980B9; stroke-width: 1.0;" x1="1003.5" x2="1044.5" y1="652.3887" y2="652.3887"/><polygon fill="#2980B9" points="1013.5,648.3887,1003.5,652.3887,1013.5,656.3887,1009.5,652.3887" style="stroke: #2980B9; stroke-width: 1.0;"/><text fill="#000000" font-family="sans-serif" font-size="13" lengthAdjust="spacingAndGlyphs" textLength="154" x="1009.5" y="634.6465">generateNavigationPoint</text><rect fill="none" height="131.2422" style="stroke: #000000; stroke-width: 2.0;" width="400.5" x="780" y="672.3887"/><polygon fill="#BDE3FF" points="780,672.3887,854,672.3887,854,679.3887,844,689.3887,780,689.3887,780,672.3887" style="stroke: #000000; stroke-width: 2.0;"/><text fill="#000000" font-family="sans-serif" font-size="13" font-weight="bold" lengthAdjust="spacingAndGlyphs" textLength="29" x="795" y="685.957">loop</text><text fill="#000000" font-family="sans-serif" font-size="11" font-weight="bold" lengthAdjust="spacingAndGlyphs" textLength="174" x="869" y="685.0234">[for each sub navigation point]</text><line style="stroke: #2980B9; stroke-width: 1.0;" x1="1002.5" x2="1049.5" y1="706.0098" y2="706.0098"/><line style="stroke: #2980B9; stroke-width: 1.0;" x1="1049.5" x2="1049.5" y1="706.0098" y2="719.0098"/><line style="stroke: #2980B9; stroke-width: 1.0;" x1="1008.5" x2="1049.5" y1="719.0098" y2="719.0098"/><polygon fill="#2980B9" points="1018.5,715.0098,1008.5,719.0098,1018.5,723.0098,1014.5,719.0098" style="stroke: #2980B9; stroke-width: 1.0;"/><text fill="#000000" font-family="sans-serif" font-size="13" lengthAdjust="spacingAndGlyphs" textLength="154" x="1014.5" y="701.2676">generateNavigationPoint</text><line style="stroke: #2980B9; stroke-width: 1.0;" x1="1007.5" x2="1049.5" y1="753.3203" y2="753.3203"/><line style="stroke: #2980B9; stroke-width: 1.0;" x1="1049.5" x2="1049.5" y1="753.3203" y2="766.3203"/><line style="stroke: #2980B9; stroke-width: 1.0;" x1="1008.5" x2="1049.5" y1="766.3203" y2="766.3203"/><polygon fill="#2980B9" points="1018.5,762.3203,1008.5,766.3203,1018.5,770.3203,1014.5,766.3203" style="stroke: #2980B9; stroke-width: 1.0;"/><text fill="#000000" font-family="sans-serif" font-size="13" lengthAdjust="spacingAndGlyphs" textLength="64" x="1014.5" y="748.5781">sortPoints</text><polygon fill="#2980B9" points="854.5,791.3203,844.5,795.3203,854.5,799.3203,850.5,795.3203" style="stroke: #2980B9; stroke-width: 1.0;"/><line style="stroke: #2980B9; stroke-width: 1.0;" x1="848.5" x2="991.5" y1="795.3203" y2="795.3203"/><text fill="#000000" font-family="sans-serif" font-size="13" lengthAdjust="spacingAndGlyphs" textLength="36" x="860.5" y="790.8887">fwrite</text><line style="stroke: #2980B9; stroke-width: 1.0;" x1="1002.5" x2="1044.5" y1="831.9414" y2="831.9414"/><line style="stroke: #2980B9; stroke-width: 1.0;" x1="1044.5" x2="1044.5" y1="831.9414" y2="844.9414"/><line style="stroke: #2980B9; stroke-width: 1.0;" x1="1003.5" x2="1044.5" y1="844.9414" y2="844.9414"/><polygon fill="#2980B9" points="1013.5,840.9414,1003.5,844.9414,1013.5,848.9414,1009.5,844.9414" style="stroke: #2980B9; stroke-width: 1.0;"/><text fill="#000000" font-family="sans-serif" font-size="13" lengthAdjust="spacingAndGlyphs" textLength="64" x="1009.5" y="827.1992">sortPoints</text><polygon fill="#2980B9" points="854.5,869.9414,844.5,873.9414,854.5,877.9414,850.5,873.9414" style="stroke: #2980B9; stroke-width: 1.0;"/><line style="stroke: #2980B9; stroke-width: 1.0;" x1="848.5" x2="986.5" y1="873.9414" y2="873.9414"/><text fill="#000000" font-family="sans-serif" font-size="13" lengthAdjust="spacingAndGlyphs" textLength="36" x="860.5" y="869.5098">fwrite</text><line style="stroke: #2980B9; stroke-width: 1.0;" x1="997.5" x2="1044.5" y1="905.5625" y2="905.5625"/><line style="stroke: #2980B9; stroke-width: 1.0;" x1="1044.5" x2="1044.5" y1="905.5625" y2="918.5625"/><line style="stroke: #2980B9; stroke-width: 1.0;" x1="1003.5" x2="1044.5" y1="918.5625" y2="918.5625"/><polygon fill="#2980B9" points="1013.5,914.5625,1003.5,918.5625,1013.5,922.5625,1009.5,918.5625" style="stroke: #2980B9; stroke-width: 1.0;"/><text fill="#000000" font-family="sans-serif" font-size="13" lengthAdjust="spacingAndGlyphs" textLength="122" x="1009.5" y="900.8203">generateNavigation</text><polygon fill="#2980B9" points="854.5,948.5625,844.5,952.5625,854.5,956.5625,850.5,952.5625" style="stroke: #2980B9; stroke-width: 1.0;"/><line style="stroke: #2980B9; stroke-width: 1.0;" x1="848.5" x2="991.5" y1="952.5625" y2="952.5625"/><text fill="#000000" font-family="sans-serif" font-size="13" lengthAdjust="spacingAndGlyphs" textLength="36" x="860.5" y="948.1309">fwrite</text></g></svg>