<?xml version="1.0" encoding="UTF-8" standalone="yes"?><svg xmlns="http://www.w3.org/2000/svg" xmlns:xlink="http://www.w3.org/1999/xlink" height="489px" style="width:1083px;height:489px;" version="1.1" viewBox="0 0 1083 489" width="1083px"><defs><filter height="300%" id="f1" width="300%" x="-1" y="-1"><feGaussianBlur result="blurOut" stdDeviation="2.0"/><feColorMatrix in="blurOut" result="blurOut2" type="matrix" values="0 0 0 0 0 0 0 0 0 0 0 0 0 0 0 0 0 0 .4 0"/><feOffset dx="4.0" dy="4.0" in="blurOut2" result="blurOut3"/><feBlend in="SourceGraphic" in2="blurOut3" mode="normal"/></filter></defs><g><rect fill="#FFFFFF" filter="url(#f1)" height="105.2422" style="stroke: #000000; stroke-width: 2.0;" width="671" x="236" y="215.041"/><line style="stroke: #2980B9; stroke-width: 1.0; stroke-dasharray: 5.0,5.0;" x1="122" x2="122" y1="38.4883" y2="450.5254"/><line style="stroke: #2980B9; stroke-width: 1.0; stroke-dasharray: 5.0,5.0;" x1="337" x2="337" y1="38.4883" y2="450.5254"/><line style="stroke: #2980B9; stroke-width: 1.0; stroke-dasharray: 5.0,5.0;" x1="531" x2="531" y1="38.4883" y2="450.5254"/><line style="stroke: #2980B9; stroke-width: 1.0; stroke-dasharray: 5.0,5.0;" x1="707" x2="707" y1="38.4883" y2="450.5254"/><line style="stroke: #2980B9; stroke-width: 1.0; stroke-dasharray: 5.0,5.0;" x1="843" x2="843" y1="38.4883" y2="450.5254"/><line style="stroke: #2980B9; stroke-width: 1.0; stroke-dasharray: 5.0,5.0;" x1="992" x2="992" y1="38.4883" y2="450.5254"/><rect fill="#BDE3FF" filter="url(#f1)" height="30.4883" style="stroke: #2980B9; stroke-width: 1.5;" width="224" x="8" y="3"/><text fill="#000000" font-family="sans-serif" font-size="14" lengthAdjust="spacingAndGlyphs" textLength="210" x="15" y="23.5352">GeneratorCommandController</text><rect fill="#BDE3FF" filter="url(#f1)" height="30.4883" style="stroke: #2980B9; stroke-width: 1.5;" width="224" x="8" y="449.5254"/><text fill="#000000" font-family="sans-serif" font-size="14" lengthAdjust="spacingAndGlyphs" textLength="210" x="15" y="470.0605">GeneratorCommandController</text><rect fill="#BDE3FF" filter="url(#f1)" height="30.4883" style="stroke: #2980B9; stroke-width: 1.5;" width="178" x="246" y="3"/><text fill="#000000" font-family="sans-serif" font-size="14" lengthAdjust="spacingAndGlyphs" textLength="164" x="253" y="23.5352">Generator\AtomicKitten</text><rect fill="#BDE3FF" filter="url(#f1)" height="30.4883" style="stroke: #2980B9; stroke-width: 1.5;" width="178" x="246" y="449.5254"/><text fill="#000000" font-family="sans-serif" font-size="14" lengthAdjust="spacingAndGlyphs" textLength="164" x="253" y="470.0605">Generator\AtomicKitten</text><rect fill="#BDE3FF" filter="url(#f1)" height="30.4883" style="stroke: #2980B9; stroke-width: 1.5;" width="183" x="438" y="3"/><text fill="#000000" font-family="sans-serif" font-size="14" lengthAdjust="spacingAndGlyphs" textLength="169" x="445" y="23.5352">TYPO3\Flow\Utility\Files</text><rect fill="#BDE3FF" filter="url(#f1)" height="30.4883" style="stroke: #2980B9; stroke-width: 1.5;" width="183" x="438" y="449.5254"/><text fill="#000000" font-family="sans-serif" font-size="14" lengthAdjust="spacingAndGlyphs" textLength="169" x="445" y="470.0605">TYPO3\Flow\Utility\Files</text><rect fill="#BDE3FF" filter="url(#f1)" height="30.4883" style="stroke: #2980B9; stroke-width: 1.5;" width="141" x="635" y="3"/><text fill="#000000" font-family="sans-serif" font-size="14" lengthAdjust="spacingAndGlyphs" textLength="127" x="642" y="23.5352">View\AtomicKitten</text><rect fill="#BDE3FF" filter="url(#f1)" height="30.4883" style="stroke: #2980B9; stroke-width: 1.5;" width="141" x="635" y="449.5254"/><text fill="#000000" font-family="sans-serif" font-size="14" lengthAdjust="spacingAndGlyphs" textLength="127" x="642" y="470.0605">View\AtomicKitten</text><rect fill="#BDE3FF" filter="url(#f1)" height="30.4883" style="stroke: #2980B9; stroke-width: 1.5;" width="103" x="790" y="3"/><text fill="#000000" font-family="sans-serif" font-size="14" lengthAdjust="spacingAndGlyphs" textLength="89" x="797" y="23.5352">SplFileObject</text><rect fill="#BDE3FF" filter="url(#f1)" height="30.4883" style="stroke: #2980B9; stroke-width: 1.5;" width="103" x="790" y="449.5254"/><text fill="#000000" font-family="sans-serif" font-size="14" lengthAdjust="spacingAndGlyphs" textLength="89" x="797" y="470.0605">SplFileObject</text><rect fill="#BDE3FF" filter="url(#f1)" height="30.4883" style="stroke: #2980B9; stroke-width: 1.5;" width="167" x="907" y="3"/><text fill="#000000" font-family="sans-serif" font-size="14" lengthAdjust="spacingAndGlyphs" textLength="153" x="914" y="23.5352">Generator\Framework</text><rect fill="#BDE3FF" filter="url(#f1)" height="30.4883" style="stroke: #2980B9; stroke-width: 1.5;" width="167" x="907" y="449.5254"/><text fill="#000000" font-family="sans-serif" font-size="14" lengthAdjust="spacingAndGlyphs" textLength="153" x="914" y="470.0605">Generator\Framework</text><line style="stroke: #2980B9; stroke-width: 1.0;" x1="122" x2="164" y1="69.7988" y2="69.7988"/><line style="stroke: #2980B9; stroke-width: 1.0;" x1="164" x2="164" y1="69.7988" y2="82.7988"/><line style="stroke: #2980B9; stroke-width: 1.0;" x1="123" x2="164" y1="82.7988" y2="82.7988"/><polygon fill="#2980B9" points="133,78.7988,123,82.7988,133,86.7988,129,82.7988" style="stroke: #2980B9; stroke-width: 1.0;"/><text fill="#000000" font-family="sans-serif" font-size="13" lengthAdjust="spacingAndGlyphs" textLength="97" x="129" y="65.0566">cleanCommand</text><polygon fill="#2980B9" points="325,107.7988,335,111.7988,325,115.7988,329,111.7988" style="stroke: #2980B9; stroke-width: 1.0;"/><line style="stroke: #2980B9; stroke-width: 1.0;" x1="122" x2="331" y1="111.7988" y2="111.7988"/><text fill="#000000" font-family="sans-serif" font-size="13" lengthAdjust="spacingAndGlyphs" textLength="32" x="129" y="107.3672">build</text><polygon fill="#2980B9" points="519.5,137.1094,529.5,141.1094,519.5,145.1094,523.5,141.1094" style="stroke: #2980B9; stroke-width: 1.0;"/><line style="stroke: #2980B9; stroke-width: 1.0;" x1="337" x2="525.5" y1="141.1094" y2="141.1094"/><text fill="#000000" font-family="sans-serif" font-size="13" lengthAdjust="spacingAndGlyphs" textLength="156" x="344" y="136.6777">readDirectoryRecursively</text><polygon fill="#2980B9" points="348,166.4199,338,170.4199,348,174.4199,344,170.4199" style="stroke: #2980B9; stroke-width: 1.0;"/><line style="stroke: #2980B9; stroke-width: 1.0; stroke-dasharray: 2.0,2.0;" x1="342" x2="530.5" y1="170.4199" y2="170.4199"/><text fill="#000000" font-family="sans-serif" font-size="13" lengthAdjust="spacingAndGlyphs" textLength="124" x="354" y="165.9883">template file names</text><polygon fill="#2980B9" points="695.5,195.7305,705.5,199.7305,695.5,203.7305,699.5,199.7305" style="stroke: #2980B9; stroke-width: 1.0;"/><line style="stroke: #2980B9; stroke-width: 1.0;" x1="337" x2="701.5" y1="199.7305" y2="199.7305"/><text fill="#000000" font-family="sans-serif" font-size="13" lengthAdjust="spacingAndGlyphs" textLength="135" x="344" y="195.2988">setPathsFromOptions</text><rect fill="none" height="105.2422" style="stroke: #000000; stroke-width: 2.0;" width="671" x="236" y="215.041"/><polygon fill="#BDE3FF" points="236,215.041,310,215.041,310,222.041,300,232.041,236,232.041,236,215.041" style="stroke: #000000; stroke-width: 2.0;"/><text fill="#000000" font-family="sans-serif" font-size="13" font-weight="bold" lengthAdjust="spacingAndGlyphs" textLength="29" x="251" y="228.6094">loop</text><text fill="#000000" font-family="sans-serif" font-size="11" font-weight="bold" lengthAdjust="spacingAndGlyphs" textLength="129" x="325" y="227.6758">[for each template file]</text><polygon fill="#2980B9" points="695.5,249.3516,705.5,253.3516,695.5,257.3516,699.5,253.3516" style="stroke: #2980B9; stroke-width: 1.0;"/><line style="stroke: #2980B9; stroke-width: 1.0;" x1="337" x2="701.5" y1="253.3516" y2="253.3516"/><text fill="#000000" font-family="sans-serif" font-size="13" lengthAdjust="spacingAndGlyphs" textLength="40" x="344" y="248.9199">render</text><polygon fill="#2980B9" points="348,278.6621,338,282.6621,348,286.6621,344,282.6621" style="stroke: #2980B9; stroke-width: 1.0;"/><line style="stroke: #2980B9; stroke-width: 1.0; stroke-dasharray: 2.0,2.0;" x1="342" x2="706.5" y1="282.6621" y2="282.6621"/><text fill="#000000" font-family="sans-serif" font-size="13" lengthAdjust="spacingAndGlyphs" textLength="88" x="354" y="278.2305">rendered html</text><polygon fill="#2980B9" points="831.5,307.9727,841.5,311.9727,831.5,315.9727,835.5,311.9727" style="stroke: #2980B9; stroke-width: 1.0;"/><line style="stroke: #2980B9; stroke-width: 1.0;" x1="337" x2="837.5" y1="311.9727" y2="311.9727"/><text fill="#000000" font-family="sans-serif" font-size="13" lengthAdjust="spacingAndGlyphs" textLength="36" x="344" y="307.541">fwrite</text><polygon fill="#F1FFFF" filter="url(#f1)" points="92,332.2832,92,372.2832,578,372.2832,578,342.2832,568,332.2832,92,332.2832" style="stroke: #2980B9; stroke-width: 1.0;"/><line style="stroke: #2980B9; stroke-width: 1.0;" x1="568" x2="568" y1="332.2832" y2="342.2832"/><line style="stroke: #2980B9; stroke-width: 1.0;" x1="578" x2="568" y1="342.2832" y2="342.2832"/><text fill="#000000" font-family="sans-serif" font-size="13" lengthAdjust="spacingAndGlyphs" textLength="465" x="98" y="349.8516">At this point all fluid templates were parsed and are available via browser.</text><text fill="#000000" font-family="sans-serif" font-size="13" lengthAdjust="spacingAndGlyphs" textLength="235" x="98" y="365.1621">But no framework is wrapped around.</text><polygon fill="#2980B9" points="133,398.9043,123,402.9043,133,406.9043,129,402.9043" style="stroke: #2980B9; stroke-width: 1.0;"/><line style="stroke: #2980B9; stroke-width: 1.0; stroke-dasharray: 2.0,2.0;" x1="127" x2="336" y1="402.9043" y2="402.9043"/><text fill="#000000" font-family="sans-serif" font-size="13" lengthAdjust="spacingAndGlyphs" textLength="124" x="139" y="398.4727">template file names</text><polygon fill="#2980B9" points="980.5,428.2148,990.5,432.2148,980.5,436.2148,984.5,432.2148" style="stroke: #2980B9; stroke-width: 1.0;"/><line style="stroke: #2980B9; stroke-width: 1.0;" x1="122" x2="986.5" y1="432.2148" y2="432.2148"/><text fill="#000000" font-family="sans-serif" font-size="13" lengthAdjust="spacingAndGlyphs" textLength="32" x="129" y="427.7832">build</text></g></svg>