<?xml version="1.0" encoding="UTF-8" standalone="yes"?><svg xmlns="http://www.w3.org/2000/svg" xmlns:xlink="http://www.w3.org/1999/xlink" height="510px" style="width:313px;height:510px;" version="1.1" viewBox="0 0 313 510" width="313px"><defs><filter height="300%" id="f1" width="300%" x="-1" y="-1"><feGaussianBlur result="blurOut" stdDeviation="2.0"/><feColorMatrix in="blurOut" result="blurOut2" type="matrix" values="0 0 0 0 0 0 0 0 0 0 0 0 0 0 0 0 0 0 .4 0"/><feOffset dx="4.0" dy="4.0" in="blurOut2" result="blurOut3"/><feBlend in="SourceGraphic" in2="blurOut3" mode="normal"/></filter></defs><g><ellipse cx="158" cy="20" fill="#227BC6" filter="url(#f1)" rx="10" ry="10" style="stroke: none; stroke-width: 1.0;"/><rect fill="#BDE3FF" filter="url(#f1)" height="34.1328" rx="12.5" ry="12.5" style="stroke: #2980B9; stroke-width: 1.5;" width="139" x="88.5" y="50"/><text fill="#000000" font-family="sans-serif" font-size="12" lengthAdjust="spacingAndGlyphs" textLength="119" x="98.5" y="71.6016">Get all template files</text><rect fill="#BDE3FF" filter="url(#f1)" height="34.1328" rx="12.5" ry="12.5" style="stroke: #2980B9; stroke-width: 1.5;" width="69" x="123.5" y="104.1328"/><text fill="#000000" font-family="sans-serif" font-size="12" lengthAdjust="spacingAndGlyphs" textLength="49" x="133.5" y="125.7344">Sort files</text><rect fill="#BDE3FF" filter="url(#f1)" height="34.1328" rx="12.5" ry="12.5" style="stroke: #2980B9; stroke-width: 1.5;" width="216" x="50" y="158.2656"/><text fill="#000000" font-family="sans-serif" font-size="12" lengthAdjust="spacingAndGlyphs" textLength="196" x="60" y="179.8672">Generate static HTML for each file</text><rect fill="#BDE3FF" filter="url(#f1)" height="34.1328" rx="12.5" ry="12.5" style="stroke: #2980B9; stroke-width: 1.5;" width="256" x="30" y="212.3984"/><text fill="#000000" font-family="sans-serif" font-size="12" lengthAdjust="spacingAndGlyphs" textLength="236" x="40" y="234">Return structure to Framework generator</text><rect fill="#BDE3FF" filter="url(#f1)" height="34.1328" rx="12.5" ry="12.5" style="stroke: #2980B9; stroke-width: 1.5;" width="296" x="10" y="266.5313"/><text fill="#000000" font-family="sans-serif" font-size="12" lengthAdjust="spacingAndGlyphs" textLength="276" x="20" y="288.1328">Generate static HTML for all subparts and parts</text><rect fill="#BDE3FF" filter="url(#f1)" height="34.1328" rx="12.5" ry="12.5" style="stroke: #2980B9; stroke-width: 1.5;" width="189" x="63.5" y="320.6641"/><text fill="#000000" font-family="sans-serif" font-size="12" lengthAdjust="spacingAndGlyphs" textLength="169" x="73.5" y="342.2656">Generate static HTML for "all"</text><rect fill="#BDE3FF" filter="url(#f1)" height="34.1328" rx="12.5" ry="12.5" style="stroke: #2980B9; stroke-width: 1.5;" width="173" x="71.5" y="374.7969"/><text fill="#000000" font-family="sans-serif" font-size="12" lengthAdjust="spacingAndGlyphs" textLength="153" x="81.5" y="396.3984">Generate outer framework</text><rect fill="#BDE3FF" filter="url(#f1)" height="34.1328" rx="12.5" ry="12.5" style="stroke: #2980B9; stroke-width: 1.5;" width="137" x="89.5" y="428.9297"/><text fill="#000000" font-family="sans-serif" font-size="12" lengthAdjust="spacingAndGlyphs" textLength="117" x="99.5" y="450.5313">Generate Navigation</text><ellipse cx="158" cy="493.0625" fill="#FFFFFF" filter="url(#f1)" rx="10" ry="10" style="stroke: #227BC6; stroke-width: 1.5;"/><line style="stroke: #227BC6; stroke-width: 2.5;" x1="151.8128" x2="164.1872" y1="486.8753" y2="499.2497"/><line style="stroke: #227BC6; stroke-width: 2.5;" x1="164.1872" x2="151.8128" y1="486.8753" y2="499.2497"/><line style="stroke: #2980B9; stroke-width: 1.5;" x1="158" x2="158" y1="30" y2="50"/><polygon fill="#2980B9" points="154,40,158,50,162,40,158,44" style="stroke: #2980B9; stroke-width: 1.0;"/><line style="stroke: #2980B9; stroke-width: 1.5;" x1="158" x2="158" y1="84.1328" y2="104.1328"/><polygon fill="#2980B9" points="154,94.1328,158,104.1328,162,94.1328,158,98.1328" style="stroke: #2980B9; stroke-width: 1.0;"/><line style="stroke: #2980B9; stroke-width: 1.5;" x1="158" x2="158" y1="138.2656" y2="158.2656"/><polygon fill="#2980B9" points="154,148.2656,158,158.2656,162,148.2656,158,152.2656" style="stroke: #2980B9; stroke-width: 1.0;"/><line style="stroke: #2980B9; stroke-width: 1.5;" x1="158" x2="158" y1="192.3984" y2="212.3984"/><polygon fill="#2980B9" points="154,202.3984,158,212.3984,162,202.3984,158,206.3984" style="stroke: #2980B9; stroke-width: 1.0;"/><line style="stroke: #2980B9; stroke-width: 1.5;" x1="158" x2="158" y1="246.5313" y2="266.5313"/><polygon fill="#2980B9" points="154,256.5313,158,266.5313,162,256.5313,158,260.5313" style="stroke: #2980B9; stroke-width: 1.0;"/><line style="stroke: #2980B9; stroke-width: 1.5;" x1="158" x2="158" y1="300.6641" y2="320.6641"/><polygon fill="#2980B9" points="154,310.6641,158,320.6641,162,310.6641,158,314.6641" style="stroke: #2980B9; stroke-width: 1.0;"/><line style="stroke: #2980B9; stroke-width: 1.5;" x1="158" x2="158" y1="354.7969" y2="374.7969"/><polygon fill="#2980B9" points="154,364.7969,158,374.7969,162,364.7969,158,368.7969" style="stroke: #2980B9; stroke-width: 1.0;"/><line style="stroke: #2980B9; stroke-width: 1.5;" x1="158" x2="158" y1="408.9297" y2="428.9297"/><polygon fill="#2980B9" points="154,418.9297,158,428.9297,162,418.9297,158,422.9297" style="stroke: #2980B9; stroke-width: 1.0;"/><line style="stroke: #2980B9; stroke-width: 1.5;" x1="158" x2="158" y1="463.0625" y2="483.0625"/><polygon fill="#2980B9" points="154,473.0625,158,483.0625,162,473.0625,158,477.0625" style="stroke: #2980B9; stroke-width: 1.0;"/></g></svg>